<svg xmlns="http://www.w3.org/2000/svg" viewBox="0 0 32 32" fill="none">
  <path d="M16 5C10.48 5 6 9.48 6 15c0 3.5 1.68 6.6 4.3 8.55" stroke="#1D4ED8" stroke-width="2" stroke-linecap="round"/>
  <path d="M16 9c-3.87 0-7 3.13-7 7 0 2.24.52 3.9 1.5 5.2" stroke="#1D4ED8" stroke-width="2" stroke-linecap="round"/>
  <path d="M16 13c-1.66 0-3 1.34-3 3v8" stroke="#1D4ED8" stroke-width="2" stroke-linecap="round"/>
  <path d="M16 5c5.52 0 10 4.48 10 10 0 3.5-1.68 6.6-4.3 8.55" stroke="#1D4ED8" stroke-width="2" stroke-linecap="round"/>
  <path d="M16 9c3.87 0 7 3.13 7 7 0 2.24-.52 3.9-1.5 5.2" stroke="#1D4ED8" stroke-width="2" stroke-linecap="round"/>
  <path d="M16 13c1.66 0 3 1.34 3 3v8" stroke="#1D4ED8" stroke-width="2" stroke-linecap="round"/>
  <circle cx="16" cy="16" r="2" fill="#1D4ED8"/>
</svg>
